<svg height="120mm" viewBox="0 0 70 120" width="70mm" xmlns="http://www.w3.org/2000/svg"><g transform="translate(10 10)"><text style="font-family:Archivo, sans-serif;font-weight:700;font-size:4.6;letter-spacing:.5;text-anchor:middle;fill:#1e1b16" x="25" y="11">PICOFACE <tspan fill="#e4572e">CP</tspan></text><path d="m14 13.4h22" stroke="#e4572e" stroke-width=".5"/><rect fill="none" height="23.6" rx="1.1" stroke="#1e1b16" stroke-width=".35" width="34.6" x="7.7" y="16.2"/><path d="m25 45.2v1.2" stroke="#e4572e" stroke-width=".8"/><text style="font-family:Archivo, sans-serif;font-weight:600;font-size:2.7;letter-spacing:.6;text-anchor:middle;fill:#1e1b16" x="25" y="55.8">SELECT</text><path d="m25 60.2v1.2" stroke="#e4572e" stroke-width=".8"/><text style="font-family:Archivo, sans-serif;font-weight:600;font-size:2.7;letter-spacing:.6;text-anchor:middle;fill:#1e1b16" x="25" y="70.8">PARAM A</text><path d="m25 75.2v1.2" stroke="#e4572e" stroke-width=".8"/><text style="font-family:Archivo, sans-serif;font-weight:600;font-size:2.7;letter-spacing:.6;text-anchor:middle;fill:#1e1b16" x="25" y="85.8">PARAM B</text><path d="m13 88.5h24" stroke="#e4572e" stroke-width=".4"/><g font-family="Archivo, sans-serif" text-anchor="middle"><text fill="#1e1b16" font-size="2.6" font-weight="600" letter-spacing=".6" x="25" y="92.2">PAGE / MENU</text><text fill="#5a554b" font-size="2.3" font-weight="500" letter-spacing=".5" x="25" y="96.2">EDIT</text></g></g><g fill="none" stroke="#ec008c" stroke-width=".1"><rect height="100" rx="3" width="50" x="10" y="10"/><rect height="22" rx=".6" width="33" x="18.5" y="27"/><circle cx="35" cy="60" r="3.5"/><circle cx="35" cy="75" r="3.5"/><circle cx="35" cy="90" r="3.5"/></g><g stroke="#000" stroke-width=".2"><path d="m5 10h4"/><path d="m10 5v4"/><path d="m61 10h4"/><path d="m60 5v4"/><path d="m5 110h4"/><path d="m10 111v4"/><path d="m61 110h4"/><path d="m60 111v4"/></g></svg>